<?xml version="1.0" encoding="UTF-8"?>
<svg version="1.1" xmlns="http://www.w3.org/2000/svg" width="1024" height="1024">
<path d="M0 0 C337.92 0 675.84 0 1024 0 C1024 337.92 1024 675.84 1024 1024 C686.08 1024 348.16 1024 0 1024 C0 686.08 0 348.16 0 0 Z " fill="#FEFCF7" transform="translate(0,0)"/>
<path d="M0 0 C1.9309367 -0.00374284 3.86187189 -0.00834687 5.79280472 -0.01373065 C11.06605601 -0.0258979 16.33924357 -0.02570762 21.61250567 -0.02334189 C27.31281165 -0.02293213 33.01309762 -0.03398811 38.71339417 -0.04345703 C49.86960471 -0.06003389 61.02579412 -0.06556509 72.18201596 -0.06668179 C81.25615333 -0.0676339 90.33028377 -0.07175235 99.40441895 -0.07808304 C120.97608471 -0.0928252 142.54774402 -0.10513373 164.11941528 -0.10408592 C164.80839772 -0.10405476 165.49738015 -0.10402361 166.20724083 -0.10399151 C169.6987757 -0.10382531 173.19031056 -0.10362723 176.68184543 -0.10342209 C177.37519503 -0.1033822 178.06854464 -0.10334231 178.78290483 -0.10330121 C180.18502592 -0.10322034 181.58714701 -0.10313674 182.98926809 -0.10305043 C204.78966572 -0.10182572 226.59000105 -0.11682733 248.39038086 -0.14419556 C272.92106375 -0.17497921 297.45170175 -0.19209894 321.98240566 -0.19026911 C334.95642872 -0.18960665 347.93038154 -0.19503592 360.90438843 -0.21662521 C371.95269357 -0.23489302 383.00089662 -0.23913854 394.04921037 -0.22560637 C399.6782953 -0.21910475 405.30718471 -0.21885737 410.93625069 -0.23631287 C416.10457649 -0.25217372 421.27255386 -0.24904884 426.44087183 -0.2317446 C428.29547746 -0.22870307 430.15010996 -0.23219745 432.00468385 -0.24346475 C449.10749634 -0.34036299 466.34366021 1.73673863 482.53442383 7.51742554 C483.3882666 7.81262085 484.24210938 8.10781616 485.12182617 8.41195679 C521.26138302 21.31074952 550.98242018 48.3170493 567.88989258 82.68930054 C578.23939193 104.66439562 582.13610995 126.91253885 582.04037476 151.07124329 C582.04384016 153.00364637 582.0486106 154.93604746 582.05455649 156.8684445 C582.06697505 162.127086 582.06093816 167.38556226 582.05159783 172.64420402 C582.04476981 178.33552168 582.0553071 184.02681224 582.0635376 189.71812439 C582.07683754 200.84739585 582.07401382 211.97660641 582.06529967 223.10588019 C582.05850844 232.15611292 582.05761263 241.20632864 582.06087112 250.25656319 C582.06133082 251.54750769 582.06179052 252.8384522 582.06226415 254.16851624 C582.06322339 256.79153574 582.06419603 259.41455523 582.06518193 262.03757472 C582.0734817 285.90166528 582.06489254 309.76572135 582.04915413 333.62980641 C582.03492074 355.3771132 582.03619157 377.12436726 582.05053711 398.87167358 C582.06663 423.34925431 582.07289941 447.8268012 582.06370032 472.30438715 C582.06274473 474.9177488 582.06180162 477.53111046 582.06087112 480.14447212 C582.0604083 481.43009242 582.05994547 482.71571271 582.05946862 484.0402912 C582.0568852 493.07254712 582.06123574 502.10478426 582.06830978 511.13703728 C582.0767495 522.1545817 582.07439291 533.17206206 582.05846755 544.18959921 C582.05061779 549.80412772 582.04743666 555.41854967 582.05741501 561.03307724 C582.0664312 566.18438801 582.06131639 571.33549459 582.04548235 576.48678715 C582.04216359 578.33852443 582.04376206 580.19027938 582.05110972 582.04200505 C582.19882745 622.40259642 568.25418898 658.15300561 540.48754883 687.46664429 C514.24466468 713.45579889 477.50853146 729.84069671 440.4067902 729.93148047 C438.60732631 729.91998819 436.80786544 729.90801632 435.00840759 729.89561462 C433.03272584 729.90067634 431.0570487 729.90791756 429.08138186 729.91711277 C423.72151945 729.93583086 418.36212083 729.92391827 413.00227106 729.90638983 C407.19508937 729.89290839 401.38797081 729.9084912 395.58079529 729.92021179 C384.23211602 729.93851259 372.88360986 729.93012691 361.53493612 729.91212357 C352.30555646 729.89805211 343.07622354 729.89421451 333.84683418 729.89756584 C331.87046611 729.89828201 331.87046611 729.89828201 329.85417141 729.89901264 C327.84814167 729.89977103 325.84211194 729.90055086 323.83608222 729.90136852 C298.82122036 729.91142864 273.80645079 729.89325135 248.79161063 729.86164817 C226.6139708 729.83378878 204.43644066 729.82882794 182.25878906 729.84384155 C176.57742538 729.84766464 170.89606169 729.85145963 165.21469784 729.85501194 C164.51504394 729.85544975 163.81539004 729.85588757 163.0945345 729.85633865 C144.5091153 729.86760189 125.92370401 729.86021239 107.33828741 729.84713119 C104.67159085 729.84528179 102.00489428 729.84345223 99.33819771 729.84162712 C98.02639768 729.84071503 96.71459766 729.83980294 95.36304612 729.83886321 C86.15234442 729.83327489 76.94167057 729.83654902 67.73097038 729.84317207 C56.49543396 729.85093097 45.26001507 729.8440608 34.02450221 729.81899703 C28.30031095 729.8065616 22.57630213 729.80028271 16.85210419 729.8115387 C11.59839735 729.8216739 6.34505219 729.81292647 1.09138889 729.78995752 C-0.79525342 729.78485264 -2.68192889 729.78625984 -4.5685562 729.79535217 C-44.61392189 729.97208482 -81.38892257 714.72855983 -109.98120117 686.68539429 C-134.78126015 661.71137305 -151.5610401 625.76777759 -151.47200394 590.19732666 C-151.47405657 589.42201107 -151.4761092 588.64669549 -151.47822404 587.84788549 C-151.48386372 585.25838652 -151.48244054 582.66894125 -151.48101807 580.07943726 C-151.48360348 578.20047825 -151.48661713 576.3215198 -151.49002147 574.4425621 C-151.49807469 569.28504807 -151.49988011 564.12754797 -151.50061893 558.9700284 C-151.50247252 553.40455536 -151.51002162 547.83908949 -151.51675415 542.27362061 C-151.53032828 530.10345051 -151.53636138 517.93328371 -151.54076481 505.7631073 C-151.54353001 498.15659516 -151.54776799 490.55008428 -151.55226898 482.943573 C-151.56446277 461.86455365 -151.57479569 440.78553513 -151.57814407 419.70651245 C-151.5783657 418.34404023 -151.57858749 416.98156802 -151.57880943 415.6190958 C-151.57903006 414.25342878 -151.57925054 412.88776175 -151.57947087 411.52209473 C-151.57991341 408.7825826 -151.58036053 406.04307047 -151.58081055 403.30355835 C-151.58091994 402.6243217 -151.58102933 401.94508506 -151.58114203 401.24526548 C-151.5847675 379.25264063 -151.60066774 357.26004885 -151.62400091 335.26743665 C-151.64865806 311.98404925 -151.66231303 288.70068327 -151.66351199 265.4172802 C-151.66442629 252.73822088 -151.67011628 240.05920482 -151.6883316 227.38015747 C-151.70379806 216.57661864 -151.70881484 205.77313644 -151.7005935 194.96958864 C-151.69670943 189.46589293 -151.69750561 183.96231102 -151.71165085 178.45862961 C-151.84329133 124.08180429 -151.84329133 124.08180429 -144.34057617 101.26742554 C-144.1359375 100.63997437 -143.93129883 100.01252319 -143.72045898 99.36605835 C-131.32161819 62.0583356 -104.2334848 32.30601504 -69.48364258 14.31967163 C-47.37321313 3.46344573 -24.39523964 -0.04517439 0 0 Z " fill="#F99E45" transform="translate(296.340576171875,143.73257446289063)"/>
<path d="M0 0 C8.10644364 -0.50726242 13.45196051 1.6916062 20.44921875 5.54296875 C25.71699829 8.28906458 31.18286668 9.93519259 36.93359375 11.359375 C37.62332275 11.53742676 38.31305176 11.71547852 39.02368164 11.89892578 C46.62216095 13.66550364 54.10020094 13.65569925 61.87109375 13.609375 C63.81145508 13.62097656 63.81145508 13.62097656 65.79101562 13.6328125 C76.78597882 13.61054422 86.6140435 12.11070787 96.99609375 8.546875 C97.77412354 8.28696777 98.55215332 8.02706055 99.35375977 7.75927734 C103.58144933 6.3083961 107.46110992 4.67671417 111.37109375 2.484375 C123.54003483 -3.9094754 142.02099649 2.42899224 154.54614258 6.17944336 C178.92187433 13.96000834 198.99604929 29.27333906 211.0612793 52.10131836 C220.40872649 70.36340074 222.3075836 88.39349042 222.30419922 108.61010742 C222.30860216 111.55249709 222.34513368 114.49341797 222.3828125 117.43554688 C222.51208618 138.49058016 222.51208618 138.49058016 215.78515625 147.11328125 C215.05039062 147.71011719 214.315625 148.30695313 213.55859375 148.921875 C212.82898438 149.54191406 212.099375 150.16195312 211.34765625 150.80078125 C206.10473501 154.18577409 201.01532257 154.64310816 194.91015625 154.5546875 C193.79089249 154.55044266 193.79089249 154.55044266 192.64901733 154.54611206 C190.28537387 154.53499187 187.92212107 154.50990321 185.55859375 154.484375 C183.94792217 154.47433462 182.3372446 154.46521062 180.7265625 154.45703125 C176.79542431 154.4350794 172.86457508 154.40060685 168.93359375 154.359375 C168.95848216 155.58212993 168.95848216 155.58212993 168.98387337 156.82958698 C169.38379351 176.79160796 169.68040022 196.75292619 169.86621284 216.71812916 C169.9584938 226.37402759 170.08396089 236.02723049 170.29150391 245.68139648 C170.47260772 254.10982285 170.58742905 262.53629563 170.62718666 270.96661395 C170.65038282 275.41945117 170.70365226 279.86670731 170.83673477 284.31772804 C171.52189734 308.16511383 168.61337489 322.86677157 153.18116474 341.55237961 C149.65666511 345.95413344 146.66581171 350.67409524 143.640625 355.42578125 C142.49809237 357.1701977 141.35345422 358.9132387 140.20581055 360.65429688 C139.64082855 361.51466553 139.07584656 362.37503418 138.4937439 363.26147461 C126.6302417 381.32096206 114.62326789 399.2760093 102.47129822 417.14242554 C97.93337844 423.82015292 93.46219062 430.5420094 89.00366211 437.27294922 C87.1138337 440.12005698 85.21232572 442.95905048 83.30859375 445.796875 C82.67953125 446.75013672 82.05046875 447.70339844 81.40234375 448.68554688 C74.01856466 459.64632268 74.01856466 459.64632268 67.99609375 462.171875 C66.97515625 462.2646875 66.97515625 462.2646875 65.93359375 462.359375 C64.84046875 462.4625 63.74734375 462.565625 62.62109375 462.671875 C57.73698696 462.25796765 53.93868161 460.47197427 50.56762695 456.92016602 C49.21235888 455.15380619 47.97230331 453.3427607 46.74609375 451.484375 C46.24456787 450.75009277 45.74304199 450.01581055 45.22631836 449.25927734 C43.4445815 446.63735689 41.68822629 443.99950604 39.93359375 441.359375 C38.53274169 439.26549814 37.13168811 437.17175609 35.73046875 435.078125 C33.3099385 431.45660102 30.89385421 427.83217391 28.48461914 424.203125 C20.77465935 412.59158058 12.98433511 401.03507397 5.18359375 389.484375 C-4.3258039 375.39989068 -13.81135012 361.30130496 -23.21435547 347.14550781 C-26.78410927 341.77534826 -30.36365401 336.4117075 -33.94140625 331.046875 C-35.27217151 329.05080531 -36.60290374 327.0547136 -37.93359375 325.05859375 C-38.49159668 324.22158936 -39.04959961 323.38458496 -39.62451172 322.5222168 C-42.55097065 318.13252839 -43.3150849 316.12483763 -43.30691528 310.8105011 C-43.30862413 310.14231879 -43.31033298 309.47413648 -43.31209362 308.78570622 C-43.31539305 306.5423318 -43.30437757 304.29925517 -43.29345703 302.0559082 C-43.29289301 300.44957486 -43.29320929 298.843241 -43.29434204 297.23690796 C-43.29491693 292.87147737 -43.28314066 288.50615623 -43.26919413 284.14075112 C-43.25670939 279.58034584 -43.25551805 275.01993817 -43.25314331 270.45951843 C-43.24692189 261.82163966 -43.23050214 253.18381139 -43.21044433 244.54595488 C-43.1881059 234.71294768 -43.17709708 224.87993809 -43.16705346 215.04691184 C-43.14613648 194.81770468 -43.11094766 174.58854302 -43.06640625 154.359375 C-44.07429199 154.3907959 -45.08217773 154.4222168 -46.12060547 154.45458984 C-49.90363886 154.56419095 -53.68653581 154.63242848 -57.47070312 154.68896484 C-59.1001759 154.71891365 -60.72949058 154.75968922 -62.35839844 154.81201172 C-72.22447184 155.12070481 -80.2565272 155.31275341 -88.06640625 148.359375 C-94.75129274 141.02825057 -95.37542747 133.49706071 -95.3671875 123.890625 C-95.37147263 122.77812378 -95.37575775 121.66562256 -95.38017273 120.51940918 C-95.38590712 118.16594115 -95.38642287 115.81245539 -95.38208008 113.45898438 C-95.37894156 109.89942188 -95.40231672 106.34070856 -95.42773438 102.78125 C-95.49182952 80.36901738 -95.49182952 80.36901738 -92.06640625 69.359375 C-91.83139404 68.60140625 -91.59638184 67.8434375 -91.35424805 67.0625 C-83.13948917 42.98546791 -65.82061181 24.12217976 -43.23779297 12.77954102 C-29.46327415 6.12282911 -15.21387055 1.78302687 0 0 Z " fill="#2E485E" transform="translate(449.06640625,357.640625)"/>
<path d="M0 0 C14.52 0 29.04 0 44 0 C44.0093457 4.36105957 44.01869141 8.72211914 44.02832031 13.21533203 C44.06206331 27.61233568 44.11739593 42.00919624 44.18390274 56.40608406 C44.22370356 65.13628572 44.25609073 73.8663971 44.27099609 82.59667969 C44.28400723 90.20645343 44.31095803 97.81602861 44.35461307 105.42569053 C44.37724014 109.45458924 44.39290995 113.48324296 44.39188385 117.51221085 C44.39113796 121.30608278 44.40905952 125.09941287 44.44116783 128.89314461 C44.44967169 130.28384873 44.45141339 131.6746136 44.44580269 133.06533241 C44.19059946 142.9081877 44.19059946 142.9081877 49 151 C53.46119443 153.97412962 57.77047545 153.74600921 63 153 C66.67268956 151.15299945 68.68231478 148.95305566 70 145 C70.1028371 143.04681943 70.14638524 141.09032585 70.15821838 139.13447571 C70.1680072 137.91029938 70.17779602 136.68612305 70.18788147 135.42485046 C70.19378562 134.06619302 70.19959607 132.70753516 70.20532227 131.34887695 C70.21490123 129.9198783 70.22491132 128.49088249 70.23532104 127.06188965 C70.26237424 123.17997781 70.28338156 119.2980538 70.30332303 115.41609979 C70.32518002 111.3601562 70.35257011 107.30425012 70.37937927 103.24833679 C70.42931004 95.56673391 70.47424745 87.88511021 70.51740164 80.20346659 C70.57599896 69.82407171 70.64228791 59.44472616 70.70815182 49.06537533 C70.81173252 32.71028345 70.90501767 16.35514931 71 0 C94.1 0 117.2 0 141 0 C141.03867187 15.47068359 141.03867187 15.47068359 141.078125 31.25390625 C141.10328881 37.78452425 141.12945494 44.3151127 141.16015625 50.84570312 C141.20870911 61.2132955 141.25314769 71.58078954 141.27099609 81.94848633 C141.28401397 89.49930669 141.31098202 97.04992719 141.35461307 104.60063499 C141.37722496 108.59770784 141.39291085 112.59453423 141.39188385 116.59167671 C141.39113706 120.35682585 141.40909465 124.12143022 141.44116783 127.88643837 C141.44966042 129.26543441 141.45142106 130.6444916 141.44580269 132.02350235 C141.39814643 142.21685998 141.39814643 142.21685998 146 151 C148.91540412 153.13953044 151.43435687 153.27174173 155 153.25 C155.845625 153.25515625 156.69125 153.2603125 157.5625 153.265625 C160.22543163 152.97543373 161.71069105 152.36747271 164 151 C168.8029529 143.96034348 168.5778997 137.28834311 168.54589844 128.96484375 C168.55464477 127.55480312 168.56513424 126.14477239 168.57722473 124.73475647 C168.60497605 120.92742068 168.60849184 117.12041049 168.60750484 113.31298828 C168.61064335 109.32642405 168.636281 105.34000446 168.65948486 101.35351562 C168.6999768 93.81372448 168.72036951 86.27401967 168.73345876 78.73413658 C168.74935193 70.14637094 168.78777726 61.55875175 168.82805204 52.97107124 C168.91035788 35.31406768 168.96153414 17.65715725 169 0 C183.19 0 197.38 0 212 0 C212.40851347 20.78635239 212.73913612 41.56938718 212.93261909 62.35875416 C213.02490005 72.01465259 213.15036714 81.66785549 213.35791016 91.32202148 C213.53901397 99.75044785 213.6538353 108.17692063 213.69359291 116.60723895 C213.71678907 121.06007617 213.77005851 125.50733231 213.90314102 129.95835304 C214.58830359 153.80573883 211.67978114 168.50739657 196.24757099 187.19300461 C192.72307136 191.59475844 189.73221796 196.31472024 186.70703125 201.06640625 C185.56449862 202.8108227 184.41986047 204.5538637 183.2722168 206.29492188 C182.7072348 207.15529053 182.14225281 208.01565918 181.56015015 208.90209961 C169.69664795 226.96158706 157.68967414 244.9166343 145.53770447 262.78305054 C140.99978469 269.46077792 136.52859687 276.1826344 132.07006836 282.91357422 C130.18023995 285.76068198 128.27873197 288.59967548 126.375 291.4375 C125.7459375 292.39076172 125.116875 293.34402344 124.46875 294.32617188 C117.08497091 305.28694768 117.08497091 305.28694768 111.0625 307.8125 C110.381875 307.874375 109.70125 307.93625 109 308 C107.906875 308.103125 106.81375 308.20625 105.6875 308.3125 C100.80339321 307.89859265 97.00508786 306.11259927 93.6340332 302.56079102 C92.27876513 300.79443119 91.03870956 298.9833857 89.8125 297.125 C89.31097412 296.39071777 88.80944824 295.65643555 88.29272461 294.89990234 C86.51098775 292.27798189 84.75463254 289.64013104 83 287 C81.59914794 284.90612314 80.19809436 282.81238109 78.796875 280.71875 C76.37634475 277.09722602 73.96026046 273.47279891 71.55102539 269.84375 C63.8410656 258.23220558 56.05074136 246.67569897 48.25 235.125 C38.74060235 221.04051568 29.25505613 206.94192996 19.85205078 192.78613281 C16.28229698 187.41597326 12.70275224 182.0523325 9.125 176.6875 C7.79423474 174.69143031 6.46350251 172.6953386 5.1328125 170.69921875 C4.57480957 169.86221436 4.01680664 169.02520996 3.44189453 168.1628418 C0.5154356 163.77315339 -0.24867865 161.76546263 -0.24050903 156.4511261 C-0.24221788 155.78294379 -0.24392673 155.11476148 -0.24568737 154.42633122 C-0.2489868 152.1829568 -0.23797132 149.93988017 -0.22705078 147.6965332 C-0.22648676 146.09019986 -0.22680304 144.483866 -0.22793579 142.87753296 C-0.22851068 138.51210237 -0.21673441 134.14678123 -0.20278788 129.78137612 C-0.19030314 125.22097084 -0.1891118 120.66056317 -0.18673706 116.10014343 C-0.18051564 107.46226466 -0.16409589 98.82443639 -0.14403808 90.18657988 C-0.12169965 80.35357268 -0.11069083 70.52056309 -0.10064721 60.68753684 C-0.07973022 40.45832343 -0.04304574 20.22917926 0 0 Z " fill="#519F87" transform="translate(406,512)"/>
<path d="M0 0 C16.44024482 12.95500464 28.59686094 30.90363841 31.86328125 51.83203125 C33.81922769 76.91391393 28.11232949 98.33317336 11.86328125 117.83203125 C-0.81330116 132.30489052 -19.384824 142.33650167 -38.63623047 144.05517578 C-60.2044201 145.33665324 -80.42934583 140.05880308 -97.03515625 125.7578125 C-97.72867187 125.12230469 -98.4221875 124.48679687 -99.13671875 123.83203125 C-99.76835937 123.26871094 -100.4 122.70539063 -101.05078125 122.125 C-114.87715075 109.12090357 -123.66844693 89.52664617 -124.33984375 70.58203125 C-124.74129001 46.57857495 -117.48949196 25.68826878 -100.88671875 8.08203125 C-91.93455203 -0.38833483 -81.6164648 -6.71314192 -70.13671875 -11.16796875 C-69.2653125 -11.50828125 -68.39390625 -11.84859375 -67.49609375 -12.19921875 C-44.76406874 -19.37775296 -19.14949073 -13.23532672 0 0 Z " fill="#2F495E" transform="translate(558.13671875,204.16796875)"/>
<path d="M0 0 C3.69813356 1.3972311 7.09595998 3.06564695 10.55078125 4.984375 C12.16847412 5.88168335 12.16847412 5.88168335 13.81884766 6.79711914 C14.9835286 7.44784652 16.14807596 8.09881303 17.3125 8.75 C17.90891296 9.08224579 18.50532593 9.41449158 19.11981201 9.75680542 C28.50807643 14.98748127 37.81212493 20.35193058 47.07739258 25.79785156 C55.18725199 30.55506528 63.37352028 35.16473626 71.60107422 39.71508789 C77.04106622 42.73564066 82.41670479 45.83073278 87.734375 49.0625 C88.82685547 49.72121094 89.91933594 50.37992188 91.04492188 51.05859375 C93.13897861 52.32702299 95.22412611 53.61031091 97.29882812 54.91015625 C98.23662109 55.47605469 99.17441406 56.04195312 100.140625 56.625 C100.96079102 57.13289062 101.78095703 57.64078125 102.62597656 58.1640625 C105.01525313 59.26157612 105.01525313 59.26157612 107.56445312 58.27539062 C108.77004883 57.64407227 108.77004883 57.64407227 110 57 C110.64356445 56.67451172 111.28712891 56.34902344 111.95019531 56.01367188 C112.56991211 55.66884766 113.18962891 55.32402344 113.828125 54.96875 C114.53590088 54.5759082 115.24367676 54.18306641 115.97290039 53.77832031 C116.72434326 53.35647461 117.47578613 52.93462891 118.25 52.5 C119.04720459 52.05495117 119.84440918 51.60990234 120.66577148 51.15136719 C126.53408403 47.86033448 132.33431068 44.46372305 138.11914062 41.02880859 C145.50284439 36.664644 152.99538692 32.4987344 160.48510742 28.32006836 C167.3002472 24.51611348 174.09947159 20.68659023 180.875 16.8125 C181.71683838 16.33151855 182.55867676 15.85053711 183.42602539 15.35498047 C187.78220475 12.86055672 192.12570586 10.34594298 196.45703125 7.80859375 C197.33568848 7.29514404 198.2143457 6.78169434 199.11962891 6.25268555 C200.79478703 5.27240429 202.46775192 4.2883626 204.13818359 3.30004883 C204.8802002 2.86587646 205.6222168 2.4317041 206.38671875 1.984375 C207.36451294 1.40768066 207.36451294 1.40768066 208.36206055 0.81933594 C210 0 210 0 212 0 C210.52604788 4.15247063 208.47366321 7.51350851 206.01171875 11.16015625 C205.60530151 11.76560776 205.19888428 12.37105927 204.78015137 12.99485779 C203.8904256 14.31950997 202.99864476 15.64278358 202.10507202 16.96484375 C199.622804 20.63798694 197.15600577 24.32150638 194.6875 28.00390625 C194.15634079 28.79548126 193.62518158 29.58705627 193.07792664 30.40261841 C187.01730618 39.44527123 181.04380452 48.54500866 175.06567383 57.64230347 C165.31668043 72.47568268 155.5231887 87.26979645 145.48046875 101.90625 C140.93550482 108.53378593 136.49624272 115.23162454 132.05834961 121.93115234 C130.17245094 124.7724155 128.27480852 127.60552402 126.375 130.4375 C125.7459375 131.39076172 125.116875 132.34402344 124.46875 133.32617188 C117.08497091 144.28694768 117.08497091 144.28694768 111.0625 146.8125 C110.381875 146.874375 109.70125 146.93625 109 147 C107.906875 147.103125 106.81375 147.20625 105.6875 147.3125 C100.80339321 146.89859265 97.00508786 145.11259927 93.6340332 141.56079102 C92.27876513 139.79443119 91.03870956 137.9833857 89.8125 136.125 C89.31097412 135.39071777 88.80944824 134.65643555 88.29272461 133.89990234 C86.51098775 131.27798189 84.75463254 128.64013104 83 126 C81.59914794 123.90612314 80.19809436 121.81238109 78.796875 119.71875 C76.37634475 116.09722602 73.96026046 112.47279891 71.55102539 108.84375 C63.8410656 97.23220558 56.05074136 85.67569897 48.25 74.125 C39.32792198 60.91040191 30.4163335 47.69015719 21.59765625 34.40625 C19.31073265 30.96211107 17.01126406 27.5268278 14.69984436 24.09907532 C13.56970037 22.42272453 12.44144562 20.74511757 11.3137207 19.06713867 C9.89537108 16.95804566 8.47354701 14.85128338 7.04760742 12.74731445 C6.4157251 11.805896 5.78384277 10.86447754 5.1328125 9.89453125 C4.57480957 9.06800049 4.01680664 8.24146973 3.44189453 7.38989258 C1.99428441 4.99052661 0.96289017 2.62704735 0 0 Z " fill="#2F485E" transform="translate(406,673)"/>
<path d="M0 0 C1.15306522 -0.00551503 1.15306522 -0.00551503 2.32942468 -0.01114148 C4.9133335 -0.02218204 7.4972021 -0.0260228 10.08113098 -0.02983093 C11.93063993 -0.03609533 13.78014762 -0.04274211 15.62965393 -0.04974365 C21.7108828 -0.07079023 27.79211193 -0.08114698 33.87336731 -0.09111023 C35.96671881 -0.09515764 38.06007017 -0.09927456 40.1534214 -0.10346031 C49.98852585 -0.12251373 59.82362278 -0.13674413 69.65874213 -0.14507228 C81.01127183 -0.154844 92.36360651 -0.18116125 103.71606749 -0.22157317 C112.49070437 -0.25173656 121.26528536 -0.2665414 130.03997308 -0.26985329 C135.28064485 -0.27220364 140.52110832 -0.28116216 145.76172447 -0.30631447 C150.69393265 -0.32960381 155.62579551 -0.33382489 160.55804443 -0.32355309 C162.36560019 -0.32305782 164.173173 -0.32937564 165.98067665 -0.34310913 C168.45448893 -0.36084938 170.92706476 -0.35371211 173.40087891 -0.34057617 C174.11091904 -0.35154542 174.82095918 -0.36251466 175.55251569 -0.37381631 C181.4815299 -0.29815717 186.79225686 1.51095422 191.08750981 5.66528529 C197.07930876 12.70396898 195.51789856 13.78484146 195.51789856 25.14717102 C123.90789856 25.14717102 52.29789856 25.14717102 -21.48210144 25.14717102 C-21.48210144 11.37842102 -21.48210144 11.37842102 -16.60710144 6.12763977 C-11.1106223 1.16666319 -7.36869741 -0.0018837 0 0 Z " fill="#F9A044" transform="translate(424.4821014404297,439.8528289794922)"/>
<path d="M0 0 C0.99 0.495 0.99 0.495 2 1 C2 15.85 2 30.7 2 46 C2.99 46.33 3.98 46.66 5 47 C4.67 47.99 4.34 48.98 4 50 C3.67 50 3.34 50 3 50 C2.83224557 54.35971314 2.67170103 58.71961417 2.51782227 63.07983398 C2.46446471 64.56297949 2.40914027 66.04605561 2.35180664 67.52905273 C2.26972079 69.66114337 2.19471999 71.79338379 2.12109375 73.92578125 C2.0739624 75.20880127 2.02683105 76.49182129 1.97827148 77.8137207 C1.83565849 81.02322732 1.83565849 81.02322732 3 84 C2.6718116 85.6676874 2.33734345 87.33414038 2 89 C1.91839247 91.65163055 1.88328805 94.27525473 1.90234375 96.92578125 C1.9037587 97.67337204 1.90517365 98.42096283 1.90663147 99.19120789 C1.91220236 101.56501365 1.9247494 103.93872303 1.9375 106.3125 C1.94251877 107.92773301 1.94708101 109.5429675 1.95117188 111.15820312 C1.96216225 115.10550555 1.97940668 119.05273647 2 123 C1.01 123.495 1.01 123.495 0 124 C0 83.08 0 42.16 0 0 Z M5 46 C7 47 7 47 7 47 Z " fill="#2A3B58" transform="translate(547,512)"/>
<path d="M0 0 C0.66 0 1.32 0 2 0 C2 47.19 2 94.38 2 143 C1.67 143 1.34 143 1 143 C0.32093404 126.50194792 -0.07527312 110.05018291 0.01126099 93.53881836 C0.04737851 86.18726923 0.03706002 78.89382887 -0.5625 71.5625 C-0.93590965 65.99671349 -1.02598908 60.49589137 -0.84375 54.921875 C-0.82267685 54.18639938 -0.8016037 53.45092377 -0.77989197 52.69316101 C-0.67000255 48.94602408 -0.54215729 45.19965337 -0.40649414 41.45336914 C0.32581541 24.65005693 0.32581541 24.65005693 -0.84375 7.91015625 C-1.06795429 5.16925885 -0.61496907 2.66486596 0 0 Z " fill="#FD9F38" transform="translate(404,529)"/>
<path d="M0 0 C-1.62114502 4.79821659 -4.29276759 8.6672859 -7.125 12.8125 C-7.59292969 13.50537109 -8.06085937 14.19824219 -8.54296875 14.91210938 C-9.69112437 16.61091105 -10.84499367 18.30584864 -12 20 C-12.33 19.34 -12.66 18.68 -13 18 C-12.0625 15.375 -12.0625 15.375 -11 13 C-11.66 12.34 -12.32 11.68 -13 11 C-16.38023517 11 -18.83468937 11.87455622 -22 13 C-18.51363477 9.0207978 -14.44848564 6.7617354 -9.875 4.25 C-9.14667969 3.83878906 -8.41835938 3.42757812 -7.66796875 3.00390625 C-2.2689213 0 -2.2689213 0 0 0 Z " fill="#2B4560" transform="translate(618,673)"/>
<path d="M0 0 C5.30000022 -0.25303227 9.6112778 0.54384437 14.5625 2.3125 C15.19607422 2.52583984 15.82964844 2.73917969 16.48242188 2.95898438 C20.49542818 4.34349222 24.24458736 6.02681709 28 8 C24.01508155 9.32830615 22.59951452 8.23204404 18.8125 6.5625 C17.18248047 5.85287109 17.18248047 5.85287109 15.51953125 5.12890625 C14.68808594 4.75636719 13.85664062 4.38382813 13 4 C12.71125 4.763125 12.4225 5.52625 12.125 6.3125 C11 9 11 9 9 12 C8.67 11.34 8.34 10.68 8 10 C7.34 10.66 6.68 11.32 6 12 C6 11.01 6 10.02 6 9 C5.34 8.01 4.68 7.02 4 6 C4.66 5.34 5.32 4.68 6 4 C5.01 3.67 4.02 3.34 3 3 C2.67 3.66 2.34 4.32 2 5 C2 4.01 2 3.02 2 2 C1.34 1.34 0.68 0.68 0 0 Z " fill="#224060" transform="translate(522,191)"/>
<path d="M0 0 C0 0.33 0 0.66 0 1 C-1.9363704 1.50435694 -3.87414146 2.00333874 -5.8125 2.5 C-6.89144531 2.7784375 -7.97039062 3.056875 -9.08203125 3.34375 C-12 4 -12 4 -15 4 C-14.01 5.485 -14.01 5.485 -13 7 C-13 7.99 -13 8.98 -13 10 C-15.375 11.75 -15.375 11.75 -18 13 C-18.66 12.67 -19.32 12.34 -20 12 C-19.67 10.35 -19.34 8.7 -19 7 C-23.455 8.485 -23.455 8.485 -28 10 C-20.91077841 2.91077841 -9.86408215 -0.4026156 0 0 Z " fill="#223F61" transform="translate(502,191)"/>
<path d="M0 0 C0.66 0 1.32 0 2 0 C3.40112305 1.76904297 3.40112305 1.76904297 5.01171875 4.2421875 C5.90213867 5.59570312 5.90213867 5.59570312 6.81054688 6.9765625 C7.42994141 7.93304687 8.04933594 8.88953125 8.6875 9.875 C11.11592833 13.58937372 13.55108309 17.2990978 16 21 C16.63115723 21.95422852 17.26231445 22.90845703 17.91259766 23.89160156 C18.52538574 24.79620117 19.13817383 25.70080078 19.76953125 26.6328125 C20.31843018 27.4489502 20.8673291 28.26508789 21.43286133 29.10595703 C22.94728972 31.27650512 22.94728972 31.27650512 26 32 C26 32.66 26 33.32 26 34 C26.66 34.33 27.32 34.66 28 35 C27.01 35.495 27.01 35.495 26 36 C25.67 36.66 25.34 37.32 25 38 C18.67470165 29.41247729 12.70560799 20.61853812 6.875 11.6875 C6.19945068 10.65488037 5.52390137 9.62226074 4.82788086 8.55834961 C4.20147705 7.59421143 3.57507324 6.63007324 2.9296875 5.63671875 C2.36491699 4.76748779 1.80014648 3.89825684 1.21826172 3.00268555 C0 1 0 1 0 0 Z " fill="#213B62" transform="translate(447,735)"/>
<path d="M0 0 C1.74627478 2.61941217 2.38722388 4.03824877 3 7 C1.02 7.99 1.02 7.99 -1 9 C2.3 12.3 5.6 15.6 9 19 C6 19 6 19 3.9140625 17.27734375 C-0.51942517 12.74550226 -4.50696033 8.29589886 -8 3 C-7.67 2.34 -7.34 1.68 -7 1 C-6.34 1.66 -5.68 2.32 -5 3 C-3.35 2.01 -1.7 1.02 0 0 Z " fill="#244061" transform="translate(455,311)"/>
<path d="M0 0 C5.22654901 1.47642627 8.16826439 4.82231936 11.8125 8.625 C12.7087207 9.54152344 12.7087207 9.54152344 13.62304688 10.4765625 C15.08895106 11.97764839 16.54542993 13.48792862 18 15 C17.67 15.66 17.34 16.32 17 17 C15.02 15.35 13.04 13.7 11 12 C9.00016466 12.79117904 9.00016466 12.79117904 7 14 C6.67 14.99 6.34 15.98 6 17 C6 16.01 6 15.02 6 14 C5.01 13.67 4.02 13.34 3 13 C4.32 11.02 5.64 9.04 7 7 C6.401875 6.5875 5.80375 6.175 5.1875 5.75 C3.01158763 4.0092701 1.57451158 2.28304179 0 0 Z " fill="#213E60" transform="translate(632,379)"/>
<path d="M0 0 C6.47377065 5.49289631 11.45114181 13.93088745 14 22 C13.67 22.99 13.34 23.98 13 25 C12.01 23.35 11.02 21.7 10 20 C9.34 20.99 8.68 21.98 8 23 C7.01 22.67 6.02 22.34 5 22 C6.75 18.125 6.75 18.125 9 17 C8.06652642 15.24784894 7.1280468 13.49836437 6.1875 11.75 C5.66542969 10.77546875 5.14335938 9.8009375 4.60546875 8.796875 C3.09244481 6.02207169 3.09244481 6.02207169 1.30078125 3.765625 C0 2 0 2 0 0 Z " fill="#213D62" transform="translate(650,396)"/>
<path d="M0 0 C0.99 0.33 1.98 0.66 3 1 C3 2.65 3 4.3 3 6 C2.34 6 1.68 6 1 6 C1 6.66 1 7.32 1 8 C0.01 8.33 -0.98 8.66 -2 9 C-1.34 9.66 -0.68 10.32 0 11 C1.51895937 13.27575538 2.73534642 15.55791034 4 18 C3.67 18.66 3.34 19.32 3 20 C-0.63 14.72 -4.26 9.44 -8 4 C-7.67 3.34 -7.34 2.68 -7 2 C-6.38125 2.33 -5.7625 2.66 -5.125 3 C-3.08981656 4.14193235 -3.08981656 4.14193235 -1 4 C-0.67 2.68 -0.34 1.36 0 0 Z " fill="#213E60" transform="translate(483,774)"/>
<path d="M0 0 C3 1 3 1 4.5625 3.9375 C5.036875 4.948125 5.51125 5.95875 6 7 C6.66 7.66 7.32 8.32 8 9 C8.7579489 10.3171846 9.48298159 11.65348018 10.1875 13 C13.06008464 18.28933998 16.47276805 23.13099682 20 28 C19.67 28.66 19.34 29.32 19 30 C14.07928465 23.47194497 9.46251012 16.78455752 5 9.9375 C4.50717529 9.18734619 4.01435059 8.43719238 3.5065918 7.66430664 C3.0506665 6.95910889 2.59474121 6.25391113 2.125 5.52734375 C1.71507812 4.89562256 1.30515625 4.26390137 0.8828125 3.61303711 C0 2 0 2 0 0 Z " fill="#1F3962" transform="translate(406,673)"/>
<path d="M0 0 C0 0.99 0 1.98 0 3 C-0.79664063 3.06058594 -1.59328125 3.12117188 -2.4140625 3.18359375 C-10.24332697 3.79667866 -10.24332697 3.79667866 -18 5 C-18 4.01 -18 3.02 -18 2 C-19.65 2 -21.3 2 -23 2 C-23 1.67 -23 1.34 -23 1 C-15.34916042 -0.24911667 -7.72559014 -0.09053426 0 0 Z " fill="#3E4E5C" transform="translate(517,372)"/>
<path d="M0 0 C0.33 0.66 0.66 1.32 1 2 C-0.2578125 4.6796875 -0.2578125 4.6796875 -2.125 7.875 C-2.72570312 8.92429687 -3.32640625 9.97359375 -3.9453125 11.0546875 C-6.01916045 14.02746574 -8.06836969 15.90018175 -11 18 C-11 15 -11 15 -9.5 13.3125 C-9.005 12.879375 -8.51 12.44625 -8 12 C-8.99 10.68 -9.98 9.36 -11 8 C-8.64561267 6.57055055 -7.51967567 5.91338739 -4.75 6.375 C-4.1725 6.58125 -3.595 6.7875 -3 7 C-2.690625 6.030625 -2.38125 5.06125 -2.0625 4.0625 C-1 1 -1 1 0 0 Z " fill="#1F4062" transform="translate(581,302)"/>
<path d="M0 0 C0.33 0.66 0.66 1.32 1 2 C0.69320313 2.88945312 0.38640625 3.77890625 0.0703125 4.6953125 C-1.09519737 8.29393058 -1.20189432 11.1071785 -1.125 14.875 C-1.10695313 16.02742188 -1.08890625 17.17984375 -1.0703125 18.3671875 C-1.04710937 19.23601562 -1.02390625 20.10484375 -1 21 C-1.66 20.67 -2.32 20.34 -3 20 C-3.66 20.99 -4.32 21.98 -5 23 C-5.53894417 15.05057353 -3.75990572 8.44842026 -1 1 C-0.67 0.67 -0.34 0.34 0 0 Z " fill="#233F61" transform="translate(440,240)"/>
<path d="M0 0 C-1.31224548 3.93673644 -2.91910327 6.22719294 -6 9 C-5.34 7.35 -4.68 5.7 -4 4 C-4.66 4 -5.32 4 -6 4 C-6.66 5.32 -7.32 6.64 -8 8 C-9.32 7.34 -10.64 6.68 -12 6 C-10.37829621 4.99466333 -8.75252763 3.99588093 -7.125 3 C-5.76761719 2.1646875 -5.76761719 2.1646875 -4.3828125 1.3125 C-2 0 -2 0 0 0 Z " fill="#23395C" transform="translate(618,673)"/>
<path d="M0 0 C0.33 0.66 0.66 1.32 1 2 C-4.96583144 10.6309795 -4.96583144 10.6309795 -10 13 C-10 12.34 -10 11.68 -10 11 C-9.175 10.21625 -8.35 9.4325 -7.5 8.625 C-4.54022989 6.12140805 -4.54022989 6.12140805 -5 2 C-3.68 2.33 -2.36 2.66 -1 3 C-0.67 2.01 -0.34 1.02 0 0 Z " fill="#203C60" transform="translate(528,806)"/>
<path d="M0 0 C0.75 1.6875 0.75 1.6875 1 4 C-0.2879728 5.70196405 -1.62986661 7.36345179 -3 9 C-4.14709386 11.29418772 -5.06193095 13.60792391 -6 16 C-6.66 15.67 -7.32 15.34 -8 15 C-6.85657478 12.68628057 -5.71038936 10.37400323 -4.5625 8.0625 C-4.23701172 7.40314453 -3.91152344 6.74378906 -3.57617188 6.06445312 C-1.11328125 1.11328125 -1.11328125 1.11328125 0 0 Z " fill="#1A3961" transform="translate(368,404)"/>
<path d="M0 0 C0.66 1.32 1.32 2.64 2 4 C0.68 4.33 -0.64 4.66 -2 5 C-2.0825 5.78375 -2.165 6.5675 -2.25 7.375 C-3 10 -3 10 -5.0625 11.3125 C-6.0215625 11.6528125 -6.0215625 11.6528125 -7 12 C-5.44298069 7.32894208 -2.91552627 3.91294315 0 0 Z " fill="#F6AA41" transform="translate(566,752)"/>
<path d="M0 0 C2.31625061 1.11777771 4.62784605 2.24374092 6.9375 3.375 C7.59685547 3.69210937 8.25621094 4.00921875 8.93554688 4.3359375 C13.88671875 6.7734375 13.88671875 6.7734375 15 9 C12.36 8.67 9.72 8.34 7 8 C6.67 7.01 6.34 6.02 6 5 C2.99992729 3.29144978 2.99992729 3.29144978 0 2 C0 1.34 0 0.68 0 0 Z " fill="#293857" transform="translate(494,723)"/>
<path d="M0 0 C9.59453303 2.89066059 9.59453303 2.89066059 13 6 C10.33333333 6 7.66666667 6 5 6 C5 5.01 5 4.02 5 3 C3.68 3 2.36 3 1 3 C0.67 2.01 0.34 1.02 0 0 Z " fill="#183B62" transform="translate(462,361)"/>
<path d="M0 0 C-1.24196122 1.15454162 -2.49392845 2.29832562 -3.75 3.4375 C-4.79414062 4.39462891 -4.79414062 4.39462891 -5.859375 5.37109375 C-7.98792725 6.99081325 -9.39023405 7.58267256 -12 8 C-11.34 7.401875 -10.68 6.80375 -10 6.1875 C-7.6626154 4.12498166 -7.6626154 4.12498166 -8 1 C-2.25 -1.125 -2.25 -1.125 0 0 Z " fill="#F8922E" transform="translate(829,838)"/>
<path d="M0 0 C0.33 0.99 0.66 1.98 1 3 C1.66 3.33 2.32 3.66 3 4 C2.67 4.66 2.34 5.32 2 6 C0.02 6 -1.96 6 -4 6 C-3.67 4.35 -3.34 2.7 -3 1 C-2.01 0.67 -1.02 0.34 0 0 Z " fill="#EC9947" transform="translate(500,366)"/>
<path d="M0 0 C1.32 1.32 2.64 2.64 4 4 C4.66 3.67 5.32 3.34 6 3 C6.66 3.66 7.32 4.32 8 5 C7.34 5 6.68 5 6 5 C6 6.98 6 8.96 6 11 C2.1334716 7.777893 1.11940982 4.85077588 0 0 Z " fill="#1F3D61" transform="translate(440,299)"/>
<path d="M0 0 C1.37562854 1.28965176 2.70766393 2.62689293 4 4 C4 4.66 4 5.32 4 6 C4.99 6 5.98 6 7 6 C7.66 8.31 8.32 10.62 9 13 C5.41193683 9.61127367 2.54315201 6.23858668 0 2 C0 1.34 0 0.68 0 0 Z " fill="#1B3962" transform="translate(492,801)"/>
<path d="M0 0 C0.66 0 1.32 0 2 0 C0.515 5.445 0.515 5.445 -1 11 C-1.33 9.68 -1.66 8.36 -2 7 C-2.33 6.34 -2.66 5.68 -3 5 C-2.67 4.01 -2.34 3.02 -2 2 C-1.34 2 -0.68 2 0 2 C0 1.34 0 0.68 0 0 Z " fill="#F6A941" transform="translate(357,422)"/>
<path d="M0 0 C1.98 0.495 1.98 0.495 4 1 C2.25 6.75 2.25 6.75 0 9 C-1.125 2.25 -1.125 2.25 0 0 Z " fill="#224063" transform="translate(403,445)"/>
<path d="M0 0 C0.99 0 1.98 0 3 0 C3.33 0.66 3.66 1.32 4 2 C4.66 2.33 5.32 2.66 6 3 C4.02 4.32 2.04 5.64 0 7 C-0.66 6.67 -1.32 6.34 -2 6 C-1.01 5.67 -0.02 5.34 1 5 C0.67 3.35 0.34 1.7 0 0 Z " fill="#203E63" transform="translate(550,331)"/>
<path d="M0 0 C2.4375 0.8125 2.4375 0.8125 5 2 C5.33 2.99 5.66 3.98 6 5 C5.01 6.485 5.01 6.485 4 8 C2.3372974 5.32521756 1.00016187 3.0004856 0 0 Z " fill="#334A5E" transform="translate(410,677)"/>
<path d="M0 0 C0.66 0.33 1.32 0.66 2 1 C-2.296875 5.00390625 -2.296875 5.00390625 -4 6 C-6.203125 5.65234375 -6.203125 5.65234375 -8 5 C-6.71475739 4.13619741 -5.42157581 3.28419631 -4.125 2.4375 C-3.04605469 1.72400391 -3.04605469 1.72400391 -1.9453125 0.99609375 C-1.30335938 0.66738281 -0.66140625 0.33867188 0 0 Z " fill="#2B3B57" transform="translate(574,697)"/>
<path d="M0 0 C1.670625 0.061875 1.670625 0.061875 3.375 0.125 C2.055 1.445 0.735 2.765 -0.625 4.125 C-3.1 3.135 -3.1 3.135 -5.625 2.125 C-3.625 0.125 -3.625 0.125 0 0 Z " fill="#213F61" transform="translate(438.625,359.875)"/>
<path d="M0 0 C-0.99 1.485 -0.99 1.485 -2 3 C-1.34 3.33 -0.68 3.66 0 4 C-3.26954202 3.43628586 -4.82575883 2.50037734 -7 0 C-3.98968256 -0.93423645 -3.13349732 -1.04449911 0 0 Z " fill="#56A88D" transform="translate(449,692)"/>
<path d="M0 0 C0.66 0.33 1.32 0.66 2 1 C-1.28804981 3.91227269 -3.59885603 5.49701212 -8 6 C-5.54080489 3.3651481 -3.42227589 1.25483449 0 0 Z " fill="#283857" transform="translate(604,680)"/>
</svg>
